<?xml version="1.0" encoding="UTF-8"?>
<!DOCTYPE svg PUBLIC "-//W3C//DTD SVG 1.1//EN" "http://www.w3.org/Graphics/SVG/1.1/DTD/svg11.dtd">
<svg xmlns="http://www.w3.org/2000/svg" version="1.1" width="256px" height="256px" style="shape-rendering:geometricPrecision; text-rendering:geometricPrecision; image-rendering:optimizeQuality; fill-rule:evenodd; clip-rule:evenodd" xmlns:xlink="http://www.w3.org/1999/xlink" viewBox="0 0 256 256">
<g><path style="opacity:1" fill="#f04747" d="M -0.5,-0.5 C 84.8333,-0.5 170.167,-0.5 255.5,-0.5C 255.5,84.8333 255.5,170.167 255.5,255.5C 170.167,255.5 84.8333,255.5 -0.5,255.5C -0.5,170.167 -0.5,84.8333 -0.5,-0.5 Z"/></g>
<g><path style="opacity:1" fill="#fffdfd" d="M 91.5,57.5 C 96.032,57.0692 100.365,57.5692 104.5,59C 90.2834,62.9422 77.2834,69.2755 65.5,78C 105.286,58.8496 145.286,58.6829 185.5,77.5C 186.696,77.1543 186.696,76.6543 185.5,76C 174.831,69.1659 163.498,63.6659 151.5,59.5C 151.709,58.914 152.043,58.414 152.5,58C 168.308,58.0471 182.642,62.7137 195.5,72C 202.408,82.6537 207.574,94.1537 211,106.5C 216.354,123.604 219.521,141.104 220.5,159C 220.593,162.95 220.093,166.784 219,170.5C 206.539,185.148 190.705,192.315 171.5,192C 168.379,188.257 165.379,184.424 162.5,180.5C 167.609,177.443 172.942,174.61 178.5,172C 182.466,169.036 186.133,165.703 189.5,162C 178.119,167.802 166.119,172.469 153.5,176C 123.17,182.612 94.8363,177.778 68.5,161.5C 68.1667,161.667 67.8333,161.833 67.5,162C 74.7463,169.787 83.413,175.287 93.5,178.5C 93.6495,179.552 93.4828,180.552 93,181.5C 90.1667,185 87.3333,188.5 84.5,192C 65.3052,192.32 49.4719,185.154 37,170.5C 35.4278,136.772 42.4278,104.772 58,74.5C 68.085,66.5413 79.2516,60.8746 91.5,57.5 Z"/></g>
<g><path style="opacity:1" fill="#f04949" d="M 93.5,117.5 C 110.539,117.569 117.039,125.902 113,142.5C 107.705,152.723 99.8718,155.223 89.5,150C 81.6282,142.09 80.4616,133.257 86,123.5C 88.1141,120.879 90.6141,118.879 93.5,117.5 Z"/></g>
<g><path style="opacity:1" fill="#f04949" d="M 151.5,117.5 C 166.739,116.969 173.572,124.303 172,139.5C 167.626,151.738 159.459,155.238 147.5,150C 140.06,142.62 138.56,134.12 143,124.5C 145.441,121.546 148.275,119.213 151.5,117.5 Z"/></g>
</svg>
